<?xml version="1.0" encoding="UTF-8" standalone="no"?>
<!-- Created with Inkscape (http://www.inkscape.org/) -->

<svg
   width="152.93105mm"
   height="29.475595mm"
   viewBox="0 0 152.93104 29.475596"
   version="1.1"
   id="svg1"
   inkscape:version="1.3.2 (091e20e, 2023-11-25, custom)"
   sodipodi:docname="wades black and white word logo.svg"
   xmlns:inkscape="http://www.inkscape.org/namespaces/inkscape"
   xmlns:sodipodi="http://sodipodi.sourceforge.net/DTD/sodipodi-0.dtd"
   xmlns:xlink="http://www.w5.org/1999/xlink"
   xmlns="http://www.w3.org/2000/svg"
   xmlns:svg="http://www.w3.org/2000/svg"
   xmlns:rdf="http://www.w3.org/1999/02/22-rdf-syntax-ns#"
   xmlns:cc="http://creativecommons.org/ns#"
   xmlns:dc="http://purl.org/dc/elements/1.1/">
  <title
     id="title2">wades black and white word logo</title>
  <sodipodi:namedview
     id="namedview1"
     pagecolor="#ffffff"
     bordercolor="#000000"
     borderopacity="0.25"
     inkscape:showpageshadow="2"
     inkscape:pageopacity="0.0"
     inkscape:pagecheckerboard="0"
     inkscape:deskcolor="#d1d1d1"
     inkscape:document-units="mm"
     showguides="true"
     inkscape:zoom="0.97890839"
     inkscape:cx="311.06077"
     inkscape:cy="73.040543"
     inkscape:window-width="1920"
     inkscape:window-height="991"
     inkscape:window-x="-9"
     inkscape:window-y="-9"
     inkscape:window-maximized="1"
     inkscape:current-layer="layer1" />
  <defs
     id="defs1">
    <linearGradient
       id="linearGradient2"
       inkscape:collect="always">
      <stop
         style="stop-color:#000000;stop-opacity:1;"
         offset="0"
         id="stop1" />
      <stop
         style="stop-color:#031130;stop-opacity:0;"
         offset="1"
         id="stop2" />
    </linearGradient>
    <linearGradient
       inkscape:collect="always"
       xlink:href="#linearGradient62"
       id="linearGradient58"
       gradientUnits="userSpaceOnUse"
       gradientTransform="matrix(1.5589527,0,0,1,14.658662,170.95716)"
       x1="38.343513"
       y1="21.245708"
       x2="75.132317"
       y2="21.245708" />
    <linearGradient
       id="linearGradient62"
       inkscape:collect="always">
      <stop
         style="stop-color:#000000;stop-opacity:0;"
         offset="0.02389078"
         id="stop61" />
      <stop
         style="stop-color:#000000;stop-opacity:1;"
         offset="0.41979522"
         id="stop62" />
    </linearGradient>
    <linearGradient
       inkscape:collect="always"
       xlink:href="#linearGradient129"
       id="linearGradient199"
       gradientUnits="userSpaceOnUse"
       gradientTransform="matrix(17.394853,0,0,17.394853,-3464.6848,-1260.8576)"
       x1="220.34727"
       y1="102.80728"
       x2="208.94272"
       y2="105.74202" />
    <linearGradient
       id="linearGradient129"
       inkscape:collect="always">
      <stop
         style="stop-color:#000000;stop-opacity:1;"
         offset="0"
         id="stop129" />
      <stop
         style="stop-color:#031130;stop-opacity:0;"
         offset="1"
         id="stop130" />
    </linearGradient>
    <linearGradient
       inkscape:collect="always"
       xlink:href="#linearGradient2"
       id="linearGradient198"
       gradientUnits="userSpaceOnUse"
       gradientTransform="matrix(12.996212,0,0,17.394853,-2504.4859,-1260.8576)"
       x1="229.62671"
       y1="82.88208"
       x2="288.99261"
       y2="79.98912" />
  </defs>
  <g
     inkscape:label="Layer 1"
     inkscape:groupmode="layer"
     id="layer1">
    <g
       id="g199"
       transform="matrix(0.88886257,0,0,0.88886257,-9.3080169,-166.42088)"
       style="stroke-width:1.12503"
       inkscape:label="writen logo">
      <path
         style="font-size:133.333px;font-family:'JetBrains Mono NL';-inkscape-font-specification:'JetBrains Mono NL';white-space:pre;opacity:0.99;fill:#000000;stroke-width:2.12604;fill-opacity:1"
         d="m 165.85686,340.73377 11.59997,-73.33314 h 11.99997 l -2.26666,13.99996 h 0.26667 q 1.99999,-7.33331 7.73331,-11.3333 5.73332,-3.99999 14.1333,-3.99999 11.06664,0 16.53329,6.79998 5.46665,6.79998 3.59999,18.53329 l -7.86665,49.3332 h -11.99997 l 7.46665,-47.19988 q 1.33333,-8.39997 -2.13333,-12.79996 -3.46665,-4.53333 -10.66664,-4.53333 -7.46664,0 -12.5333,4.66666 -5.06665,4.66665 -6.53331,13.19997 l -7.33332,46.66654 z m 75.46653,14.66663 66.79983,-125.33301 h 12.9333 L 254.25669,355.4004 Z m 111.99976,-13.3333 q -12.9333,0 -19.59995,-7.73331 -6.66665,-7.86665 -4.53332,-21.59995 l 2.79999,-17.33328 q 2.26667,-13.99997 10.93331,-21.59995 8.79998,-7.73331 22.53328,-7.73331 8.39997,0 14.39996,3.06666 5.99998,3.06665 8.79998,8.39997 2.93332,5.33332 1.86666,12.26664 -1.33333,8.66664 -7.06665,13.19997 -5.59999,4.39999 -14.66663,4.39999 h -26.93326 l -1.06667,6.66664 q -1.33333,8.13332 2.53333,12.9333 3.99999,4.66666 11.7333,4.66666 6.66665,0 11.33331,-2.53333 4.79998,-2.66666 6.39998,-7.06665 h 11.99997 q -2.66666,9.46665 -10.93331,14.79997 -8.26664,5.19998 -20.53328,5.19998 z m -9.99997,-44.26655 h 26.79993 q 3.19999,0 5.33332,-1.86666 2.26666,-1.86666 2.93333,-6.13332 1.06666,-6.26665 -3.06666,-9.99997 -3.99999,-3.86666 -11.46664,-3.86666 -8.13331,0 -13.46663,4.79999 -5.19999,4.66665 -6.53332,13.3333 z m 100.93313,42.93322 q -9.73331,0 -14.66663,-5.59998 -4.79999,-5.73332 -3.33333,-15.06663 l 10.39998,-65.73317 h -25.33327 l 1.73333,-10.9333 h 37.33323 l -12.1333,76.66647 q -0.8,4.53332 1.33333,7.19998 2.13333,2.53333 6.39999,2.53333 h 22.6666 l -1.73332,10.9333 z m 79.99984,0 q -9.7333,0 -14.66663,-5.59998 -4.79998,-5.73332 -3.33332,-15.06663 l 10.39997,-65.73317 H 491.3229 l 1.73333,-10.9333 h 37.33324 l -12.1333,76.66647 q -0.8,4.53332 1.33333,7.19998 2.13333,2.53333 6.39998,2.53333 h 22.66661 l -1.73333,10.9333 z m 69.06655,1.33333 q -12.9333,0 -19.59995,-7.73331 -6.66665,-7.86665 -4.53333,-21.59995 l 2.8,-17.33328 q 2.26666,-13.99997 10.9333,-21.59995 8.79998,-7.73331 22.53328,-7.73331 8.39998,0 14.39996,3.06666 5.99999,3.06665 8.79998,8.39997 2.93332,5.33332 1.86666,12.26664 -1.33333,8.66664 -7.06665,13.19997 -5.59998,4.39999 -14.66663,4.39999 h -26.93326 l -1.06667,6.66664 q -1.33333,8.13332 2.53333,12.9333 3.99999,4.66666 11.7333,4.66666 6.66665,0 11.33331,-2.53333 4.79999,-2.66666 6.39998,-7.06665 h 11.99997 q -2.66666,9.46665 -10.9333,14.79997 -8.26665,5.19998 -20.53328,5.19998 z m -9.99998,-44.26655 h 26.79993 q 3.19999,0 5.33332,-1.86666 2.26666,-1.86666 2.93333,-6.13332 1.06666,-6.26665 -3.06666,-9.99997 -3.99999,-3.86666 -11.46664,-3.86666 -8.13331,0 -13.46663,4.79999 -5.19999,4.66665 -6.53332,13.3333 z m 57.59988,42.93322 31.33325,-38.13323 -18.13329,-35.19991 h 13.86663 l 10.39998,22.66661 q 0.66666,1.46666 1.33333,3.19999 0.79999,1.73333 1.06666,2.79999 0.66667,-1.06666 1.73333,-2.79999 1.06666,-1.73333 2.13333,-3.19999 l 17.46662,-22.66661 h 14.26663 l -29.33326,36.13324 19.19995,37.1999 h -13.86663 l -11.3333,-23.99994 q -0.66667,-1.46666 -1.46667,-3.33332 -0.66666,-2 -1.06666,-3.19999 -0.8,1.19999 -2,3.19999 -1.19999,1.86666 -2.39999,3.33332 l -18.93328,23.99994 z"
         id="path200"
         transform="matrix(0.26458333,0,0,0.26458333,-7.0202483,126.35704)"
         inkscape:label="text" />
      <path
         id="rect15-2-1-8-7-0"
         style="opacity:0.99;fill:url(#linearGradient58);stroke-width:0.562515"
         inkscape:label="right rectangle"
         d="m 74.43441,190.75682 h 57.35201 v 2.89275 H 74.434411 Z"
         sodipodi:nodetypes="ccccc" />
      <g
         id="g197"
         transform="matrix(0.05748777,0,0,0.05748777,0.70805276,183.25227)"
         style="stroke-width:19.57"
         inkscape:label="logo">
        <path
           id="path164"
           style="font-size:133.333px;font-family:'JetBrains Mono NL';-inkscape-font-specification:'JetBrains Mono NL';white-space:pre;opacity:0.99;fill:url(#linearGradient199);stroke-width:56.7531"
           d="M 423.33188,180.86257 368.10324,528.18974 H 177.82393 l -7.983,50.32114 h 215.27212 l 63.58177,-397.64831 z m 30.17191,0 -63.5791,397.64831 H 508.0188 l 7.98034,-50.32114 h -91.43706 l 55.22864,-347.32717 z"
           inkscape:label="bottom" />
        <path
           id="path163"
           style="font-size:133.333px;font-family:'JetBrains Mono NL';-inkscape-font-specification:'JetBrains Mono NL';white-space:pre;opacity:0.99;fill:url(#linearGradient198);stroke-width:56.7531"
           d="m 338.47453,130.54143 -5.95929,50.32114 h 90.81664 25.36294 l 8.04691,-50.32114 z m 123.07617,0 -8.04691,50.32114 h 26.28693 765.57208 l 5.9593,-50.32114 z"
           inkscape:label="top" />
      </g>
    </g>
  </g>
  <metadata
     id="metadata2">
    <rdf:RDF>
      <cc:Work
         rdf:about="">
        <dc:title>wades black and white word logo</dc:title>
      </cc:Work>
    </rdf:RDF>
  </metadata>
</svg>
