<?xml version="1.0" encoding="UTF-8" standalone="no"?>
<!-- Created with Inkscape (http://www.inkscape.org/) -->

<svg
   width="1500"
   height="500"
   viewBox="0 0 396.87497 132.29168"
   version="1.1"
   id="svg1"
   inkscape:version="1.3.2 (091e20e, 2023-11-25, custom)"
   sodipodi:docname="wades black and white word logo.svg"
   xmlns:inkscape="http://www.inkscape.org/namespaces/inkscape"
   xmlns:sodipodi="http://sodipodi.sourceforge.net/DTD/sodipodi-0.dtd"
   xmlns:xlink="http://www.w3.org/1999/xlink"
   xmlns="http://www.w3.org/2000/svg"
   xmlns:svg="http://www.w3.org/2000/svg"
   xmlns:rdf="http://www.w3.org/1999/02/22-rdf-syntax-ns#"
   xmlns:cc="http://creativecommons.org/ns#"
   xmlns:dc="http://purl.org/dc/elements/1.1/">
  <title
     id="title2">wades black and white word logo</title>
  <sodipodi:namedview
     id="namedview1"
     pagecolor="#727272"
     bordercolor="#000000"
     borderopacity="0.25"
     inkscape:showpageshadow="2"
     inkscape:pageopacity="0.0"
     inkscape:pagecheckerboard="0"
     inkscape:deskcolor="#d1d1d1"
     inkscape:document-units="mm"
     showguides="true"
     inkscape:zoom="0.35355339"
     inkscape:cx="869.74134"
     inkscape:cy="117.37973"
     inkscape:window-width="1920"
     inkscape:window-height="991"
     inkscape:window-x="-9"
     inkscape:window-y="-9"
     inkscape:window-maximized="1"
     inkscape:current-layer="layer1">
    <sodipodi:guide
       position="686.37936,92.886403"
       orientation="1,0"
       id="guide6"
       inkscape:locked="false" />
  </sodipodi:namedview>
  <defs
     id="defs1">
    <linearGradient
       id="linearGradient6"
       inkscape:collect="always">
      <stop
         style="stop-color:#000000;stop-opacity:1;"
         offset="0"
         id="stop6" />
      <stop
         style="stop-color:#000000;stop-opacity:1;"
         offset="0.55846775"
         id="stop7" />
      <stop
         style="stop-color:#000000;stop-opacity:1;"
         offset="0.66315514"
         id="stop8" />
    </linearGradient>
    <linearGradient
       id="swatch11"
       inkscape:swatch="solid">
      <stop
         style="stop-color:#000000;stop-opacity:1;"
         offset="0"
         id="stop11" />
    </linearGradient>
    <linearGradient
       id="linearGradient0"
       inkscape:collect="always">
      <stop
         style="stop-color:#ffffff;stop-opacity:0;"
         offset="-1"
         id="stop0" />
      <stop
         style="stop-color:#ffffff;stop-opacity:-1.84468341;"
         offset="-1.26209676"
         id="stop3" />
      <stop
         style="stop-color:#ffffff;stop-opacity:-1.60000002;"
         offset="-1.48891133"
         id="stop12" />
      <stop
         style="stop-color:#ffffff;stop-opacity:-1;"
         offset="-1.93548393"
         id="stop2" />
      <stop
         style="stop-color:#ffffff;stop-opacity:-1;"
         offset="0"
         id="stop11" />
    </linearGradient>
    <rect
       x="2.043092"
       y="156.29654"
       width="109.30543"
       height="57.206577"
       id="rect1" />
    <radialGradient
       inkscape:collect="always"
       xlink:href="#linearGradient1"
       id="radialGradient2"
       cx="198.4375"
       cy="66.145844"
       fx="198.4375"
       fy="66.145851"
       r="198.4375"
       gradientTransform="matrix(0.97266667,0.00833333,-0.00285573,0.33332063,5.6128529,42.444418)"
       gradientUnits="userSpaceOnUse" />
    <linearGradient
       inkscape:collect="always"
       xlink:href="#linearGradient6"
       id="linearGradient7"
       x1="164.54893"
       y1="243.40074"
       x2="716.38983"
       y2="243.40079"
       gradientUnits="userSpaceOnUse" />
    <linearGradient
       inkscape:collect="always"
       xlink:href="#linearGradient5-7"
       id="linearGradient197-1"
       gradientUnits="userSpaceOnUse"
       gradientTransform="matrix(2.3066791,0,0,2.3066791,-481.96345,-148.47228)"
       x1="271.50571"
       y1="79.989098"
       x2="208.94272"
       y2="105.74202" />
    <linearGradient
       id="linearGradient5-7"
       inkscape:collect="always">
      <stop
         style="stop-color:#000000;stop-opacity:1;"
         offset="0"
         id="stop7-8" />
      <stop
         style="stop-color:#000000;stop-opacity:1;"
         offset="0.21738368"
         id="stop6-8" />
      <stop
         style="stop-color:#000000;stop-opacity:1;"
         offset="0.80386358"
         id="stop4-6" />
      <stop
         style="stop-color:#000000;stop-opacity:0;"
         offset="1"
         id="stop5-8" />
    </linearGradient>
  </defs>
  <g
     inkscape:label="Layer 1"
     inkscape:groupmode="layer"
     id="layer1">
    <path
       id="path1"
       style="opacity:0.99;fill:url(#radialGradient2);stroke-width:0.1;stroke:none"
       d="M 396.875,66.145836 A 198.4375,66.145836 0 0 1 198.4375,132.29167 198.4375,66.145836 0 0 1 0,66.145836 198.4375,66.145836 0 0 1 198.4375,0 198.4375,66.145836 0 0 1 396.875,66.145836 Z" />
    <g
       id="g3"
       style="stroke-width:0.433517"
       transform="matrix(2.3067056,0,0,2.3067056,-24.155425,-403.98295)"
       inkscape:label="written logo">
      <path
         id="path200-5"
         style="font-size:133.333px;font-family:'JetBrains Mono NL';-inkscape-font-specification:'JetBrains Mono NL';white-space:pre;opacity:0.99;fill:url(#linearGradient7);fill-opacity:1;stroke-width:0.819245"
         inkscape:label="text"
         d="m 308.1236,230.06738 -66.80105,125.33355 h 12.93348 l 66.80106,-125.33355 z m 104.93352,13.3334 -1.73369,10.93392 h 25.33303 l -10.39997,65.73315 c -0.97777,6.2222 0.13336,11.24269 3.33335,15.0649 3.28888,3.73331 8.17832,5.60099 14.66718,5.60099 h 22.66547 l 1.73369,-10.93391 h -22.66546 c -2.84444,0 -4.97861,-0.84464 -6.40083,-2.53353 -1.42223,-1.77776 -1.86711,-4.17624 -1.33378,-7.19845 l 12.13366,-76.66707 z m 103.59975,10.93392 -10.39995,65.73315 c -0.97777,6.2222 0.13336,11.24269 3.33335,15.0649 3.28888,3.73331 8.17612,5.60099 14.66498,5.60099 h 22.66767 l 1.73369,-10.93391 h -22.66766 c -2.84443,0 -4.97641,-0.84464 -6.39863,-2.53353 -1.42223,-1.77776 -1.86711,-4.17624 -1.33378,-7.19845 l 12.13366,-76.66707 z m -307.33405,11.73155 c -5.59999,0 -10.31103,1.33468 -14.13323,4.00134 -3.82221,2.66666 -6.39908,6.44497 -7.73241,11.33383 h -0.26807 l 2.26764,-14.00139 h -11.99962 l -11.59971,73.33371 h 11.99962 l 7.3325,-46.66691 c 0.97776,-5.68887 3.15709,-10.08826 6.53486,-13.19936 3.37776,-3.11111 7.55362,-4.66713 12.53137,-4.66713 4.79999,0 8.35695,1.51087 10.66804,4.53309 2.31111,2.93333 3.0225,7.19948 2.13361,12.79945 l -7.46653,47.20086 h 11.99963 l 7.86644,-49.33227 c 1.24444,-7.8222 0.0452,-14.00117 -3.59923,-18.53448 -3.64442,-4.53332 -9.15716,-6.80074 -16.53491,-6.80074 z m 396.13258,0 c -9.15552,0 -16.66698,2.57907 -22.53362,7.7346 -5.77776,5.06665 -9.42062,12.26646 -10.93172,21.59976 l -2.8016,17.33255 c -1.42221,9.15552 0.0909,16.35534 4.53529,21.59976 4.44442,5.15553 10.9758,7.7346 19.59799,7.7346 8.17774,0 15.02296,-1.73443 20.53406,-5.20108 5.51108,-3.55554 9.15615,-8.48793 10.93392,-14.79902 h -11.99963 c -1.06666,2.93333 -3.20084,5.28885 -6.40082,7.06662 -3.11111,1.68888 -6.88941,2.53352 -11.33383,2.53352 -5.15554,0 -9.06709,-1.55603 -11.73375,-4.66713 -2.57773,-3.19999 -3.42021,-7.51129 -2.53133,-12.93349 l 1.06571,-6.6667 h 26.93268 c 6.04443,0 10.93387,-1.46573 14.66719,-4.39906 3.8222,-3.02222 6.17772,-7.42381 7.06661,-13.20156 0.71111,-4.62221 0.09,-8.70996 -1.86553,-12.2655 -1.86666,-3.55555 -4.80033,-6.35597 -8.80031,-8.4004 -3.99999,-2.04443 -8.80132,-3.06747 -14.40131,-3.06747 z m -247.35132,0.0132 c -4.41389,0 -8.51293,1.15669 -12.29626,3.46739 -3.78334,2.3107 -6.98125,5.50978 -9.59355,9.59794 -2.6123,4.08816 -4.3684,8.84382 -5.2692,14.26507 l -3.37729,21.46133 c -0.81072,5.33239 -0.63049,10.04287 0.54054,14.13104 1.26111,4.08816 3.42162,7.28724 6.48432,9.59794 3.0627,2.3107 6.80129,3.46738 11.21518,3.46738 5.58492,0 10.49498,-1.46624 14.72871,-4.39905 4.32381,-2.93281 7.34149,-6.84353 9.053,-11.73155 -0.63056,4.17703 0.22442,7.68787 2.56648,10.53181 2.34206,2.84394 5.7202,4.26501 10.13409,4.26501 h 6.75679 l 1.75567,-10.93172 h -6.08001 c -1.71151,0 -3.06321,-0.53318 -4.05408,-1.59965 -0.99087,-1.15535 -1.35132,-2.6216 -1.08109,-4.39906 l 9.05301,-56.3901 h -12.16003 l -2.02594,13.997 h -0.40651 c 0.18016,-4.6214 -1.17153,-8.3085 -4.05407,-11.06356 -2.88254,-2.84394 -6.84531,-4.26722 -11.88976,-4.26722 z m 296.0178,1.3206 18.13457,35.20124 -31.33393,38.13247 h 14.26727 l 18.9322,-23.99924 c 0.8,-0.97777 1.59949,-2.08891 2.39948,-3.33335 0.8,-1.33333 1.46844,-2.40152 2.00177,-3.20151 0.26667,0.79999 0.62127,1.86818 1.06571,3.20151 0.53333,1.24444 1.02336,2.35558 1.46781,3.33335 l 11.33164,23.99924 h 13.86735 l -19.20027,-37.2008 29.33436,-36.13291 h -14.26727 l -17.46658,22.66766 c -0.71111,0.97777 -1.4225,2.04377 -2.13361,3.19932 -0.71111,1.15555 -1.28924,2.08829 -1.73369,2.7994 -0.17778,-0.71111 -0.53238,-1.64385 -1.06571,-2.7994 -0.44445,-1.15555 -0.88934,-2.22155 -1.33378,-3.19932 l -10.39996,-22.66766 z m -50.26613,8.53443 c 4.97776,0 8.80121,1.28734 11.46786,3.86511 2.75555,2.48887 3.77639,5.82228 3.06528,10.00005 -0.44445,2.84444 -1.42233,4.89051 -2.93344,6.13495 -1.42221,1.24443 -3.19959,1.86553 -5.33292,1.86553 h -26.80084 l 0.53395,-3.73327 c 0.88889,-5.77776 3.06601,-10.2223 6.53267,-13.3334 3.55554,-3.19998 8.04523,-4.79897 13.46744,-4.79897 z m -243.45326,0.54494 c 4.41389,0 7.65576,1.59954 9.72758,4.79897 2.16191,3.11056 2.83665,7.376 2.02594,12.79725 l -3.10702,19.99571 c -0.9008,5.42126 -2.92724,9.73186 -6.08002,12.93129 -3.0627,3.11056 -6.84524,4.66714 -11.34921,4.66714 -4.41389,0 -7.70192,-1.55658 -9.86382,-4.66714 -2.07183,-3.19943 -2.70261,-7.51003 -1.8919,-12.93129 l 3.10702,-19.99571 c 0.81072,-5.42125 2.7932,-9.68669 5.94598,-12.79725 3.15278,-3.19943 6.98148,-4.79897 11.48545,-4.79897 z"
         transform="matrix(0.26458333,0,0,0.26458333,-7.0202483,126.35704)"
         sodipodi:nodetypes="ccccccccccsccscccccccsccsccccsscccccccsscccccsssccccsccccscccscscssssscccssccssccscccccccscccccccccccccccscccccscccscccssccccsccccs" />
      <path
         id="rect15-2-1-8-7-0-9"
         style="opacity:0.99;fill:#000000;fill-opacity:1;stroke-width:0.216758"
         inkscape:label="right rectangle"
         d="m 74.473839,190.75682 h 58.838201 l -0.7337,2.89275 H 74.434411 Z"
         sodipodi:nodetypes="ccccc" />
    </g>
    <path
       id="path164-6-6-3"
       style="font-size:133.333px;font-family:'JetBrains Mono NL';-inkscape-font-specification:'JetBrains Mono NL';white-space:pre;opacity:0.99;fill:url(#linearGradient197-1);stroke-width:2.9"
       inkscape:label="logo"
       d="m 22.362202,36.0369 -0.790333,6.672913 H 33.614718 L 26.290943,88.767836 H 1.0585656 L 7.8e-6,95.440751 H 28.546656 L 36.978095,42.709813 38.044879,36.0369 Z m 20.00816,0 -1.066782,6.672913 -8.431316,52.730939 h 15.660119 l 1.058428,-6.672915 H 37.4657 l 7.32365,-46.058023 98.73341,0 0.79033,-6.672913 z"
       sodipodi:nodetypes="cccccccccccccccccccc" />
  </g>
  <metadata
     id="metadata2">
    <rdf:RDF>
      <cc:Work
         rdf:about="">
        <dc:title>wades black and white word logo</dc:title>
      </cc:Work>
    </rdf:RDF>
  </metadata>
</svg>
